<svg width="112" height="112" viewBox="0 0 112 112" fill="none" xmlns="http://www.w3.org/2000/svg">
<g clip-path="url(#clip0)">
<path d="M49.025 32.6839V49.0255C44.9636 53.087 36.4298 61.6208 34.0371 64.0134C32.2483 65.8023 32.216 68.729 34.0371 70.5501C34.8734 71.3866 36.0291 71.9038 37.3054 71.9038H55.5617L57.7406 52.2939L55.5617 32.6839L52.2934 30.505L49.025 32.6839Z" fill="#329952"/>
<path d="M78.4401 67.2818C78.4316 67.2404 78.5318 65.4589 77.0863 64.0134C73.0249 59.952 64.4911 51.4182 62.0984 49.0255C62.0984 44.6255 62.0984 35.2471 62.0984 32.6839L58.8301 30.505L55.5618 32.6839V71.9038H73.818C76.3706 71.9038 78.4401 69.8345 78.4401 67.2818Z" fill="#8EDC73"/>
<path d="M52.2935 13.0735V26.1472L53.9276 28.3261L55.5618 26.1472L57.7407 20.1553L55.5618 13.0735L53.9276 10.8946L52.2935 13.0735Z" fill="#329952"/>
<path d="M58.8301 13.0735L57.1959 10.8946L55.5618 13.0735V26.1472L57.1959 28.3261L58.8301 26.1472C58.8301 21.6223 58.8301 17.6121 58.8301 13.0735Z" fill="#329952"/>
<path d="M42.4885 26.1472V32.6839H55.5618C55.5618 30.3978 55.5618 28.4333 55.5618 26.1472C53.9802 26.1472 44.0806 26.1472 42.4885 26.1472Z" fill="#8EDC73"/>
<path d="M68.6351 26.1472C67.0534 26.1472 57.1539 26.1472 55.5618 26.1472V32.6839H68.6351C68.6351 30.3978 68.6351 28.4333 68.6351 26.1472Z" fill="#329952"/>
<path d="M45.7569 0.000610352H35.9519V3.26894C35.9519 8.68412 40.3419 13.0739 45.7569 13.0739H55.5619L57.7408 11.63L55.5619 9.8056C55.5619 4.39041 51.1721 0.000610352 45.7569 0.000610352Z" fill="#BEE75E"/>
<path d="M75.1717 3.26894C75.1717 2.1259 75.1717 1.14365 75.1717 0.000610352C71.9076 0.000610352 68.6309 0.000610352 65.3668 0.000610352C59.9518 0.000610352 55.5618 4.39019 55.5618 9.8056V13.0739H65.3668C70.7817 13.0739 75.1717 8.68412 75.1717 3.26894Z" fill="#5BC980"/>
<path d="M29.7597 81.781L31.7972 82.1852C35.2073 85.5953 39.6921 88.5771 44.5434 90.3922L47.0637 92.1943L50.3149 91.935C52.0621 92.2124 53.822 92.2945 55.5614 92.1937L57.7403 95.462L55.5614 98.7303C35.1476 98.7303 18.1517 82.9907 16.4763 62.7787L19.2964 61.0227L22.8781 62.7785C23.5268 69.2827 26.1944 75.2337 30.1351 80.0536L29.7597 81.781Z" fill="#FCC536"/>
<path d="M81.6083 81.2907L81.8944 78.8946C85.336 74.2933 87.6471 68.7704 88.2448 62.7785L91.7491 61.6082L94.6464 62.7785C92.9738 82.9585 76.0093 98.7301 55.5613 98.7301C55.5613 96.444 55.5613 94.4795 55.5613 92.1935C57.3029 92.3233 59.061 92.2209 60.808 91.9368L64.4311 91.9348L66.3391 90.4628C71.2824 88.663 75.8593 85.6511 79.3253 82.1852L81.6083 81.2907Z" fill="#FCC536"/>
<path d="M22.8783 62.7785V56.2418C22.8783 49.0332 17.0136 43.1687 9.80499 43.1687H0L11.4392 55.1524L22.8783 62.7785Z" fill="#BEE75E"/>
<path d="M0 43.1687V49.7054C0 56.9138 5.86469 62.7785 13.0733 62.7785H22.8783L0 43.1687Z" fill="#5BC980"/>
<path d="M88.2446 62.7785V56.2418C88.2446 49.0332 94.1093 43.1687 101.318 43.1687H111.123L99.6838 55.1524L88.2446 62.7785Z" fill="#5BC980"/>
<path d="M111.123 43.1687V49.7054C111.123 56.9138 105.258 62.7785 98.0496 62.7785H88.2446L111.123 43.1687Z" fill="#00A78E"/>
<path d="M27.7784 77.0304C23.3456 71.3457 15.1145 70.3275 9.42997 74.7598L1.69775 80.789C3.881 81.2151 14.1534 83.2199 16.3418 83.6472L31.7978 82.1852L27.7784 77.0304Z" fill="#BEE75E"/>
<path d="M1.69727 80.7889L5.71687 85.9437C10.1625 91.6452 18.3699 92.6557 24.0653 88.2143L31.7973 82.1851L1.69727 80.7889Z" fill="#5BC980"/>
<path d="M83.345 77.0304C87.7778 71.3457 96.0089 70.3275 101.693 74.7598L109.426 80.789L94.7814 83.647L79.3254 82.1852L83.345 77.0304Z" fill="#5BC980"/>
<path d="M109.426 80.7889L105.406 85.9437C100.966 91.6384 92.7589 92.6599 87.0577 88.2143L79.3257 82.1851C83.066 82.0117 105.661 80.9636 109.426 80.7889Z" fill="#00A78E"/>
<path d="M43.9982 90.254C37.0169 88.3956 29.8612 92.5418 28.0026 99.5256L25.4812 109.001L38.3122 101.529L50.3151 91.935L43.9982 90.254Z" fill="#BEE75E"/>
<path d="M25.4812 109.001L31.798 110.682C38.7482 112.531 45.9355 108.392 47.7936 101.41L50.3151 91.935L25.4812 109.001Z" fill="#5BC980"/>
<path d="M67.1249 90.254C74.1063 88.3956 81.262 92.5418 83.1206 99.5256L85.642 109.001L72.8112 101.529L60.8083 91.935L67.1249 90.254Z" fill="#5BC980"/>
<path d="M85.6417 109.001L79.3249 110.682C72.3747 112.531 65.1875 108.392 63.3295 101.41L60.8081 91.935L85.6417 109.001Z" fill="#00A78E"/>
</g>
<defs>
<clipPath id="clip0">
<rect width="111.123" height="111.123" fill="white"/>
</clipPath>
</defs>
</svg>
