<svg width="112" height="112" viewBox="0 0 112 112" fill="none" xmlns="http://www.w3.org/2000/svg">
<g clip-path="url(#clip0)">
<path d="M29.4148 34.8409L35.9515 57.7192H55.5614L57.7403 34.8409L55.5614 11.9626H35.9515L29.4148 34.8409Z" fill="#329952"/>
<path d="M75.831 34.8409L91.0832 11.9626H55.5615V57.7192H91.0832L75.831 34.8409Z" fill="#8EDC73"/>
<path d="M32.6831 80.5975L29.4148 77.3292V5.42596H35.9515V35.422V77.3292L32.6831 80.5975Z" fill="#FCC536"/>
<path d="M13.0732 77.3292V93.6708L34.3174 100.207L55.5615 93.6708L57.7404 85.5364L55.5615 77.3292H13.0732Z" fill="#FFDA2D"/>
<path d="M98.0498 77.3292H55.5615V93.6708L76.8057 100.207L98.0498 93.6708V77.3292Z" fill="#FDBF00"/>
<path d="M0 93.6708V116.549H55.5616L57.7405 105.11L55.5616 93.6708H0Z" fill="#329952"/>
<path d="M55.5615 93.6708H111.123V116.549H55.5615V93.6708Z" fill="#329952"/>
</g>
<defs>
<clipPath id="clip0">
<rect width="111.123" height="111.123" fill="white"/>
</clipPath>
</defs>
</svg>
