<svg width="112" height="112" viewBox="0 0 112 112" fill="none" xmlns="http://www.w3.org/2000/svg">
<g clip-path="url(#clip0)">
<path d="M83.3643 26.4786L75.2213 45.1384L55.5616 49.5278L35.1493 44.5142L27.7589 26.4786H83.3643Z" fill="#6BBE4E"/>
<path d="M55.5615 49.5278L75.2212 45.1384L83.3642 26.4786H55.5615V49.5278Z" fill="#8EDC73"/>
<path d="M55.5617 49.5278L62.0728 74.6935L55.5617 99.859L12.3929 49.5278L32.5473 43.0166L55.5617 49.5278Z" fill="#6BBE4E"/>
<path d="M104.612 13.4564V6.94525H98.1008V13.4564H91.5897V19.9675H98.1008V26.4786H104.612V19.9675H111.123V13.4564H104.612Z" fill="#FCC536"/>
<path d="M13.0222 78.5676H6.51112V85.0788H0V91.5899H6.51112V98.101H13.0222V91.5899H19.5334V85.0788H13.0222V78.5676Z" fill="#FCC536"/>
<path d="M0 59.0342H6.51112V65.5454H0V59.0342Z" fill="#FCC536"/>
<path d="M104.612 39.5009H111.123V46.012H104.612V39.5009Z" fill="#FCC536"/>
<path d="M98.7303 49.5278L55.5615 99.859V49.5278L79.1563 43.0166L98.7303 49.5278Z" fill="#8EDC73"/>
<path d="M98.7303 49.5278H55.5615L83.3642 26.4786L98.7303 49.5278Z" fill="#329952"/>
<path d="M55.5617 49.5278H12.3929L27.759 26.4786L55.5617 49.5278Z" fill="#8EDC73"/>
</g>
<defs>
<clipPath id="clip0">
<rect width="111.123" height="111.123" fill="white"/>
</clipPath>
</defs>
</svg>
