<svg width="195" height="48" viewBox="0 0 195 48" fill="none" xmlns="http://www.w3.org/2000/svg">
<path d="M71.3685 35.1831C69.6148 35.1831 68.066 34.8912 66.7222 34.3073C65.3784 33.701 64.3194 32.8477 63.545 31.7473C62.7706 30.6245 62.372 29.2659 62.3492 27.6716H66.9614C67.0069 28.7719 67.4055 29.7038 68.1571 30.4673C68.9315 31.2084 69.9906 31.5789 71.3344 31.5789C72.4959 31.5789 73.4184 31.3095 74.1017 30.7705C74.7849 30.2091 75.1266 29.4681 75.1266 28.5473C75.1266 27.5817 74.8191 26.8295 74.2041 26.2905C73.612 25.7516 72.8148 25.3137 71.8127 24.9768C70.8105 24.64 69.7401 24.2807 68.6013 23.8989C66.7564 23.2702 65.3443 22.4617 64.3649 21.4737C63.4083 20.4856 62.93 19.1719 62.93 17.5326C62.9073 16.1403 63.2375 14.9502 63.9208 13.9621C64.6268 12.9516 65.5834 12.1768 66.7906 11.6379C67.9977 11.0765 69.387 10.7958 70.9586 10.7958C72.5529 10.7958 73.9536 11.0765 75.1607 11.6379C76.3906 12.1993 77.3472 12.9853 78.0305 13.9958C78.7366 15.0063 79.1124 16.2077 79.1579 17.6H74.4775C74.4547 16.7691 74.1244 16.0393 73.4867 15.4105C72.8717 14.7593 72.0063 14.4337 70.8902 14.4337C69.9336 14.4112 69.1251 14.647 68.4646 15.141C67.8269 15.6126 67.508 16.3088 67.508 17.2295C67.508 18.0154 67.7585 18.6442 68.2596 19.1158C68.7607 19.5649 69.444 19.9467 70.3095 20.261C71.1749 20.5754 72.1657 20.9123 73.2817 21.2716C74.4661 21.6758 75.5479 22.1474 76.5273 22.6863C77.5067 23.2252 78.2924 23.9438 78.8846 24.8421C79.4768 25.7179 79.7729 26.8519 79.7729 28.2442C79.7729 29.4793 79.454 30.6245 78.8163 31.68C78.1786 32.7354 77.2334 33.5888 75.9807 34.24C74.728 34.8687 73.1906 35.1831 71.3685 35.1831Z" fill="#101510"/>
<path d="M91.7193 35.1831C90.0111 35.1831 88.4965 34.8238 87.1755 34.1052C85.8545 33.3866 84.8182 32.3761 84.0666 31.0737C83.315 29.7712 82.9392 28.2666 82.9392 26.56C82.9392 24.8309 83.3036 23.2926 84.0324 21.9452C84.784 20.5979 85.809 19.5537 87.1072 18.8126C88.4282 18.0491 89.977 17.6674 91.7535 17.6674C93.4161 17.6674 94.8852 18.0267 96.1606 18.7452C97.4361 19.4638 98.4269 20.4519 99.1329 21.7095C99.8617 22.9445 100.226 24.3256 100.226 25.8526C100.226 26.0996 100.215 26.3579 100.192 26.6273C100.192 26.8968 100.181 27.1775 100.158 27.4695H87.278C87.3691 28.7719 87.8246 29.7937 88.6446 30.5347C89.4873 31.2758 90.5008 31.6463 91.6852 31.6463C92.5734 31.6463 93.3136 31.4554 93.9058 31.0737C94.5208 30.6695 94.9763 30.153 95.2724 29.5242H99.7137C99.3948 30.5796 98.8596 31.5452 98.108 32.421C97.3792 33.2744 96.4681 33.948 95.3749 34.4421C94.3044 34.9361 93.0859 35.1831 91.7193 35.1831ZM91.7535 21.1705C90.683 21.1705 89.7378 21.4737 88.9179 22.08C88.0979 22.6638 87.5741 23.5621 87.3463 24.7747H95.7848C95.7165 23.6744 95.3065 22.7986 94.5549 22.1474C93.8033 21.4961 92.8695 21.1705 91.7535 21.1705Z" fill="#101510"/>
<path d="M103.904 42.1894V18.0716H107.799L108.277 20.4631C108.824 19.7221 109.541 19.0709 110.429 18.5095C111.34 17.9481 112.513 17.6674 113.948 17.6674C115.543 17.6674 116.966 18.0491 118.219 18.8126C119.472 19.5761 120.462 20.6203 121.191 21.9452C121.92 23.2702 122.284 24.7747 122.284 26.4589C122.284 28.1431 121.92 29.6477 121.191 30.9726C120.462 32.2751 119.472 33.308 118.219 34.0716C116.966 34.8126 115.543 35.1831 113.948 35.1831C112.673 35.1831 111.557 34.9473 110.6 34.4758C109.644 34.0042 108.869 33.3417 108.277 32.4884V42.1894H103.904ZM113.026 31.4105C114.415 31.4105 115.565 30.9502 116.476 30.0295C117.388 29.1088 117.843 27.9186 117.843 26.4589C117.843 24.9993 117.388 23.7979 116.476 22.8547C115.565 21.9116 114.415 21.44 113.026 21.44C111.614 21.44 110.452 21.9116 109.541 22.8547C108.653 23.7754 108.209 24.9656 108.209 26.4252C108.209 27.8849 108.653 29.0863 109.541 30.0295C110.452 30.9502 111.614 31.4105 113.026 31.4105Z" fill="#101510"/>
<path d="M128.548 15.4779C127.751 15.4779 127.09 15.2421 126.567 14.7705C126.066 14.2989 125.815 13.7038 125.815 12.9853C125.815 12.2667 126.066 11.6828 126.567 11.2337C127.09 10.7621 127.751 10.5263 128.548 10.5263C129.345 10.5263 129.994 10.7621 130.495 11.2337C131.019 11.6828 131.281 12.2667 131.281 12.9853C131.281 13.7038 131.019 14.2989 130.495 14.7705C129.994 15.2421 129.345 15.4779 128.548 15.4779ZM126.362 34.7789V18.0716H130.735V34.7789H126.362Z" fill="#101510"/>
<path d="M135.299 34.7789V18.0716H139.194L139.604 21.2042C140.219 20.1263 141.05 19.273 142.098 18.6442C143.168 17.993 144.421 17.6674 145.856 17.6674V22.2147H144.626C143.669 22.2147 142.815 22.3607 142.063 22.6526C141.312 22.9445 140.72 23.4498 140.287 24.1684C139.877 24.887 139.672 25.8863 139.672 27.1663V34.7789H135.299Z" fill="#101510"/>
<path d="M151.202 15.4779C150.405 15.4779 149.744 15.2421 149.22 14.7705C148.719 14.2989 148.469 13.7038 148.469 12.9853C148.469 12.2667 148.719 11.6828 149.22 11.2337C149.744 10.7621 150.405 10.5263 151.202 10.5263C151.999 10.5263 152.648 10.7621 153.149 11.2337C153.673 11.6828 153.935 12.2667 153.935 12.9853C153.935 13.7038 153.673 14.2989 153.149 14.7705C152.648 15.2421 151.999 15.4779 151.202 15.4779ZM149.015 34.7789V18.0716H153.388V34.7789H149.015Z" fill="#101510"/>
<path d="M157.953 34.7789V18.0716H161.813L162.155 20.901C162.679 19.913 163.43 19.127 164.41 18.5431C165.412 17.9593 166.585 17.6674 167.928 17.6674C170.024 17.6674 171.652 18.3186 172.814 19.621C173.976 20.9235 174.556 22.8323 174.556 25.3474V34.7789H170.183V25.7516C170.183 24.3144 169.887 23.214 169.295 22.4505C168.703 21.687 167.78 21.3052 166.528 21.3052C165.298 21.3052 164.284 21.7319 163.487 22.5852C162.713 23.4386 162.326 24.6288 162.326 26.1558V34.7789H157.953Z" fill="#101510"/>
<path d="M185.912 29.7937C185.092 29.7937 184.329 29.7038 183.623 29.5242L182.359 30.7705C182.746 30.9726 183.27 31.141 183.931 31.2758C184.591 31.4105 185.662 31.5452 187.142 31.68C189.397 31.8821 191.037 32.4098 192.062 33.2631C193.087 34.1165 193.599 35.2954 193.599 36.8C193.599 37.788 193.326 38.72 192.779 39.5958C192.233 40.494 191.39 41.2126 190.251 41.7516C189.112 42.313 187.655 42.5937 185.878 42.5937C183.464 42.5937 181.517 42.1445 180.036 41.2463C178.556 40.3705 177.815 39.0456 177.815 37.2716C177.815 35.767 178.556 34.4645 180.036 33.3642C179.581 33.1621 179.182 32.9487 178.84 32.7242C178.522 32.4996 178.237 32.2638 177.986 32.0168V31.2421L180.959 28.1431C179.638 26.9979 178.977 25.527 178.977 23.7305C178.977 22.6077 179.25 21.5859 179.797 20.6652C180.366 19.7445 181.164 19.0147 182.188 18.4758C183.213 17.9368 184.455 17.6674 185.912 17.6674C186.869 17.6674 187.757 17.8021 188.577 18.0716H195V20.6989L192.096 20.901C192.552 21.7544 192.779 22.6975 192.779 23.7305C192.779 24.8533 192.506 25.8751 191.959 26.7958C191.413 27.7165 190.616 28.4463 189.568 28.9852C188.543 29.5242 187.324 29.7937 185.912 29.7937ZM185.912 26.4926C186.801 26.4926 187.529 26.2568 188.099 25.7852C188.691 25.3137 188.987 24.64 188.987 23.7642C188.987 22.8884 188.691 22.2147 188.099 21.7431C187.529 21.2716 186.801 21.0358 185.912 21.0358C184.979 21.0358 184.227 21.2716 183.658 21.7431C183.088 22.2147 182.803 22.8884 182.803 23.7642C182.803 24.64 183.088 25.3137 183.658 25.7852C184.227 26.2568 184.979 26.4926 185.912 26.4926ZM181.813 36.8337C181.813 37.6645 182.2 38.2821 182.974 38.6863C183.771 39.113 184.739 39.3263 185.878 39.3263C186.971 39.3263 187.86 39.1017 188.543 38.6526C189.226 38.2259 189.568 37.6421 189.568 36.901C189.568 36.2947 189.34 35.7894 188.885 35.3852C188.452 34.981 187.575 34.734 186.254 34.6442C185.32 34.5768 184.455 34.4758 183.658 34.341C182.997 34.7003 182.519 35.0933 182.223 35.52C181.949 35.9466 181.813 36.3845 181.813 36.8337Z" fill="#101510"/>
<path fill-rule="evenodd" clip-rule="evenodd" d="M23.9148 44.1764C34.9808 44.1764 43.9515 35.3316 43.9515 24.421C43.9515 13.5105 34.9808 4.66571 23.9148 4.66571C12.8488 4.66571 3.87807 13.5105 3.87807 24.421C3.87807 35.3316 12.8488 44.1764 23.9148 44.1764ZM23.9148 48C37.1226 48 47.8296 37.4433 47.8296 24.421C47.8296 11.3988 37.1226 0.842102 23.9148 0.842102C10.707 0.842102 0 11.3988 0 24.421C0 37.4433 10.707 48 23.9148 48Z" fill="#329952"/>
<path fill-rule="evenodd" clip-rule="evenodd" d="M23.2903 12.5816C21.7829 12.5816 20.3128 13.2097 19.2102 14.3682C18.1037 15.5308 17.4623 17.1323 17.4623 18.826C17.4623 20.5197 18.1037 22.1212 19.2102 23.2839C20.3128 24.4423 21.7829 25.0705 23.2903 25.0705C24.3068 25.0705 25.1308 25.9092 25.1308 26.9438C25.1308 27.9784 24.3068 28.8171 23.2903 28.8171C20.7685 28.8171 18.3499 27.7646 16.5665 25.8908C14.7833 24.0172 13.7814 21.4759 13.7814 18.826C13.7814 16.1761 14.7833 13.6349 16.5665 11.7613C18.3499 9.88748 20.7685 8.83496 23.2903 8.83496C24.3068 8.83496 25.1308 9.67368 25.1308 10.7083C25.1308 11.7429 24.3068 12.5816 23.2903 12.5816Z" fill="#329952"/>
<path fill-rule="evenodd" clip-rule="evenodd" d="M22.6987 20.2997C22.6987 19.2651 23.5227 18.4264 24.5392 18.4264C27.061 18.4264 29.4796 19.4789 31.263 21.3527C33.0462 23.2263 34.0481 25.7675 34.0481 28.4175C34.0481 31.0674 33.0462 33.6086 31.263 35.4822C29.4796 37.356 27.061 38.4085 24.5392 38.4085C23.5227 38.4085 22.6987 37.5698 22.6987 36.5352C22.6987 35.5006 23.5227 34.6619 24.5392 34.6619C26.0466 34.6619 27.5167 34.0338 28.6193 32.8753L29.9411 34.1788L28.6193 32.8753C29.7258 31.7126 30.3672 30.1112 30.3672 28.4175C30.3672 26.7237 29.7258 25.1223 28.6193 23.9596C27.5167 22.8012 26.0466 22.173 24.5392 22.173C23.5227 22.173 22.6987 21.3343 22.6987 20.2997Z" fill="#329952"/>
</svg>
